<?xml version="1.0" encoding="utf-8"?>
<!-- Generator: Adobe Illustrator 25.2.0, SVG Export Plug-In . SVG Version: 6.00 Build 0)  -->
<svg version="1.1" id="레이어_2" xmlns="http://www.w3.org/2000/svg" xmlns:xlink="http://www.w3.org/1999/xlink" x="0px"
	 y="0px" viewBox="0 0 495.28 541.89" style="enable-background:new 0 0 595.28 841.89;" xml:space="preserve">
<style type="text/css">
	.st0{fill:#004953;}
	.st1{fill:#A5C9C8;}
	.st2{fill:#8F8F8F;}
</style>
<g>
	<g>
		
			<rect x="318.87" y="409.69" transform="matrix(0.7071 -0.7071 0.7071 0.7071 -199.2903 352.6913)" class="st0" width="14.43" height="14.43"/>
		
			<rect x="331.71" y="396.95" transform="matrix(0.7071 -0.7071 0.7071 0.7071 -186.5213 358.0382)" class="st0" width="14.43" height="14.43"/>
		
			<rect x="306.23" y="396.95" transform="matrix(0.7071 -0.7071 0.7071 0.7071 -193.9839 340.0218)" class="st0" width="14.43" height="14.43"/>
		
			<rect x="318.87" y="384.37" transform="matrix(0.7071 -0.7071 0.7071 0.7071 -181.3824 345.2736)" class="st0" width="14.43" height="14.43"/>
		
			<rect x="293.49" y="384.37" transform="matrix(0.7071 -0.7071 0.7071 0.7071 -188.8156 327.3272)" class="st0" width="14.43" height="14.43"/>
		
			<rect x="344.2" y="384.37" transform="matrix(0.7071 -0.7071 0.7071 0.7071 -173.9646 363.1798)" class="st0" width="14.43" height="14.43"/>
		
			<rect x="330.41" y="358.72" transform="matrix(0.1271 -0.9919 0.9919 0.1271 -68.2565 654.3181)" class="st0" width="14.43" height="14.43"/>
		
			<rect x="304.58" y="351.48" transform="matrix(0.9867 -0.1625 0.1625 0.9867 -54.1387 55.428)" class="st0" width="14.43" height="14.43"/>
		
			<rect x="317.82" y="328.44" transform="matrix(0.7071 -0.7071 0.7071 0.7071 -142.1438 328.1436)" class="st0" width="14.43" height="14.43"/>
	</g>
</g>
<g>
	<rect x="160.46" y="473.44" class="st1" width="275.31" height="3.56"/>
	<rect x="160.46" y="448.68" class="st1" width="275.31" height="21.22"/>
</g>
<g>
	<path class="st0" d="M216.77,460.04V441.3l-8.79,15.31h-3.43l-9.27-15.31v18.74h-6.46v-30.85h5.93l11.35,19.39l11-19.39h6.08
		l0.05,30.85H216.77z"/>
	<path class="st0" d="M233.51,460.12h-7.15l13.66-30.97h7.19l13.71,30.93h-7.03l-3.09-6.65H236.6L233.51,460.12z M243.64,435.9
		l-4.85,12.05h9.81L243.64,435.9z"/>
	<path class="st0" d="M309.07,434.64v25.48l-6.53-0.04v-25.44h-9.97v-5.41h26.48v5.41H309.07z"/>
	<path class="st0" d="M360.06,460.2l-15.38-18.72l-0.1,18.72h-6.8v-30.98h5.76l15.43,18.93v-18.93h6.67v30.98H360.06z"/>
	<path class="st0" d="M372.96,460.12v-30.89h6.87v30.89H372.96z"/>
	<path class="st0" d="M387.23,460.12v-30.89h23.05v5.38h-16.04v7.25h14.25v5.36h-14.25v7.43l16.53-0.04v5.51H387.23z"/>
	<g>
		<polygon class="st0" points="326.6,431.17 324.66,429.23 323.09,429.23 323.09,460.12 330.12,460.12 330.12,429.23 328.55,429.23 
					"/>
	</g>
	<path class="st0" d="M284.56,450.34l-0.01,0c3.54-1.89,5.95-5.61,5.95-9.9c0-6.19-5.02-11.21-11.21-11.21h-8.33h-5.5h-1.06v31.06
		h6.55v-8.63h6.91l6.01,8.46l7.33,0.08L284.56,450.34z M270.95,445.99v-11.54h7.24c3.14,0,5.68,2.54,5.68,5.68v0.18
		c0,3.14-2.54,5.68-5.68,5.68H270.95z"/>
</g>
<g>
	<g>
		<path class="st2" d="M238.91,484.01c0-1.04,0.01-2.11,0.04-2.71h-0.03c-0.25,0.96-1.1,3.29-1.73,5.08h-0.74
			c-0.48-1.47-1.36-4.09-1.61-5.09h-0.03c0.04,0.66,0.06,1.9,0.06,2.87v2.22h-0.79v-5.67h1.25c0.61,1.71,1.34,3.9,1.53,4.64h0.01
			c0.13-0.58,1.01-2.98,1.63-4.64h1.22v5.67h-0.82V484.01z"/>
		<path class="st2" d="M244.83,485.43c0,0.38,0.03,0.82,0.06,0.94h-0.77c-0.03-0.09-0.06-0.29-0.07-0.52
			c-0.15,0.27-0.47,0.62-1.26,0.62c-0.98,0-1.4-0.64-1.4-1.28c0-0.93,0.73-1.36,1.97-1.36c0.27,0,0.53,0,0.69,0v-0.33
			c0-0.35-0.12-0.77-0.85-0.77c-0.65,0-0.77,0.32-0.84,0.64h-0.77c0.06-0.61,0.43-1.25,1.64-1.25c1.03,0,1.6,0.42,1.6,1.38V485.43z
			 M244.04,484.37c-0.12,0-0.42,0-0.63,0c-0.8,0-1.21,0.23-1.21,0.78c0,0.41,0.28,0.71,0.77,0.71c0.95,0,1.07-0.64,1.07-1.36V484.37
			z"/>
		<path class="st2" d="M249.97,485.08c-0.17,0.71-0.65,1.38-1.75,1.38c-1.17,0-1.87-0.84-1.87-2.15c0-1.18,0.68-2.2,1.93-2.2
			c1.24,0,1.65,0.88,1.69,1.41h-0.79c-0.1-0.41-0.35-0.75-0.92-0.75c-0.69,0-1.09,0.6-1.09,1.51c0,0.93,0.39,1.53,1.07,1.53
			c0.5,0,0.78-0.27,0.94-0.73H249.97z"/>
		<path class="st2" d="M252.22,480.38v2.42c0.21-0.35,0.58-0.69,1.28-0.69c0.69,0,1.4,0.38,1.4,1.6v2.66h-0.8v-2.53
			c0-0.67-0.28-1.05-0.86-1.05c-0.73,0-1.02,0.49-1.02,1.31v2.26h-0.8v-5.99H252.22z"/>
		<path class="st2" d="M256.7,480.38h0.8v0.92h-0.8V480.38z M256.7,482.21h0.8v4.16h-0.8V482.21z"/>
		<path class="st2" d="M259.31,483.26c0-0.36,0-0.73-0.01-1.05h0.78c0.02,0.12,0.03,0.53,0.03,0.65c0.16-0.34,0.5-0.75,1.29-0.75
			c0.79,0,1.39,0.49,1.39,1.59v2.67h-0.8v-2.57c0-0.6-0.23-1-0.84-1c-0.73,0-1.04,0.53-1.04,1.35v2.22h-0.8V483.26z"/>
		<path class="st2" d="M265.1,484.45c0,0.78,0.4,1.36,1.08,1.36c0.62,0,0.82-0.31,0.95-0.6h0.81c-0.16,0.53-0.61,1.26-1.78,1.26
			c-1.32,0-1.86-1.05-1.86-2.13c0-1.25,0.63-2.22,1.91-2.22c1.36,0,1.81,1.07,1.81,1.98c0,0.13,0,0.23-0.01,0.35H265.1z
			 M267.2,483.9c-0.01-0.64-0.32-1.17-1-1.17c-0.7,0-1,0.48-1.07,1.17H267.2z"/>
		<path class="st2" d="M272.17,486.37v-5.99h0.8v5.99H272.17z"/>
		<path class="st2" d="M275.29,484.45c0,0.78,0.4,1.36,1.08,1.36c0.62,0,0.82-0.31,0.95-0.6h0.81c-0.16,0.53-0.61,1.26-1.78,1.26
			c-1.32,0-1.86-1.05-1.86-2.13c0-1.25,0.63-2.22,1.91-2.22c1.36,0,1.81,1.07,1.81,1.98c0,0.13,0,0.23-0.01,0.35H275.29z
			 M277.39,483.9c-0.01-0.64-0.32-1.17-1-1.17c-0.7,0-1,0.48-1.07,1.17H277.39z"/>
		<path class="st2" d="M282.86,485.43c0,0.38,0.03,0.82,0.06,0.94h-0.77c-0.03-0.09-0.06-0.29-0.07-0.52
			c-0.15,0.27-0.47,0.62-1.26,0.62c-0.98,0-1.4-0.64-1.4-1.28c0-0.93,0.73-1.36,1.97-1.36c0.27,0,0.54,0,0.69,0v-0.33
			c0-0.35-0.11-0.77-0.84-0.77c-0.65,0-0.77,0.32-0.84,0.64h-0.77c0.06-0.61,0.43-1.25,1.64-1.25c1.03,0,1.61,0.42,1.61,1.38V485.43
			z M282.08,484.37c-0.13,0-0.42,0-0.63,0c-0.8,0-1.21,0.23-1.21,0.78c0,0.41,0.27,0.71,0.77,0.71c0.95,0,1.08-0.64,1.08-1.36
			V484.37z"/>
		<path class="st2" d="M284.67,483.34c0-0.55,0-0.88-0.01-1.13h0.79c0.01,0.11,0.02,0.46,0.02,0.83c0.21-0.54,0.7-0.91,1.39-0.92
			v0.79c-0.85,0.02-1.39,0.42-1.39,1.49v1.98h-0.8V483.34z"/>
		<path class="st2" d="M288.22,483.26c0-0.36,0-0.73-0.01-1.05h0.78c0.02,0.12,0.03,0.53,0.03,0.65c0.16-0.34,0.5-0.75,1.29-0.75
			c0.79,0,1.39,0.49,1.39,1.59v2.67h-0.8v-2.57c0-0.6-0.23-1-0.84-1c-0.73,0-1.04,0.53-1.04,1.35v2.22h-0.8V483.26z"/>
		<path class="st2" d="M293.49,480.38h0.8v0.92h-0.8V480.38z M293.49,482.21h0.8v4.16h-0.8V482.21z"/>
		<path class="st2" d="M296.1,483.26c0-0.36,0-0.73-0.01-1.05h0.78c0.02,0.12,0.03,0.53,0.03,0.65c0.16-0.34,0.5-0.75,1.29-0.75
			c0.79,0,1.39,0.49,1.39,1.59v2.67h-0.8v-2.57c0-0.6-0.23-1-0.84-1c-0.73,0-1.04,0.53-1.04,1.35v2.22h-0.8V483.26z"/>
		<path class="st2" d="M304.86,485.97c0,1.33-0.54,2.11-1.94,2.11c-1.31,0-1.68-0.73-1.75-1.28h0.82c0.11,0.42,0.45,0.65,0.97,0.65
			c0.91,0,1.12-0.57,1.12-1.5v-0.31c-0.22,0.45-0.59,0.7-1.27,0.7c-1.04,0-1.72-0.85-1.72-2.04c0-1.35,0.79-2.18,1.8-2.18
			c0.78,0,1.11,0.37,1.2,0.63c0.01-0.17,0.03-0.45,0.04-0.53h0.76c0,0.27-0.01,0.8-0.01,1.2V485.97z M301.92,484.26
			c0,0.85,0.44,1.41,1.08,1.41c0.86,0,1.1-0.58,1.1-1.46c0-0.89-0.22-1.43-1.08-1.43C302.31,482.79,301.92,483.38,301.92,484.26z"/>
		<path class="st2" d="M314.47,482.79l-1.46,2.11c-0.67,0.97-1.15,1.55-2.23,1.55c-1.1,0-1.66-0.77-1.66-1.51
			c0-0.76,0.44-1.26,1.54-1.82c0.7-0.36,1.14-0.64,1.14-1.17c0-0.38-0.22-0.73-0.68-0.73c-0.42,0-0.7,0.28-0.7,0.75
			c0,0.35,0.27,0.66,0.67,1.04l3.42,3.36h-1.07l-3.03-2.98c-0.43-0.42-0.75-0.82-0.75-1.37c0-0.75,0.53-1.4,1.46-1.4
			c0.87,0,1.41,0.61,1.41,1.32c0,0.65-0.44,1.05-1.45,1.6c-0.93,0.47-1.13,0.87-1.13,1.32c0,0.48,0.37,0.9,0.9,0.9
			c0.63,0,0.96-0.27,1.67-1.32l1.1-1.64H314.47z"/>
		<path class="st2" d="M319.69,484.74l-0.58,1.63h-0.83l2-5.67h1.04l2.09,5.67h-0.89l-0.6-1.63H319.69z M321.71,484.03
			c-0.51-1.43-0.8-2.22-0.93-2.67h-0.01c-0.14,0.5-0.46,1.44-0.88,2.67H321.71z"/>
		<path class="st2" d="M325.73,483.92v2.45h-0.83v-5.67h2.27c1.18,0,1.81,0.64,1.81,1.52c0,0.74-0.42,1.18-0.94,1.33
			c0.43,0.12,0.83,0.46,0.83,1.45v0.25c0,0.39-0.01,0.87,0.08,1.11h-0.81c-0.1-0.25-0.1-0.68-0.1-1.23v-0.11
			c0-0.77-0.21-1.11-1.21-1.11H325.73z M325.73,483.22h1.19c0.83,0,1.19-0.31,1.19-0.92c0-0.58-0.38-0.9-1.11-0.9h-1.27V483.22z"/>
		<path class="st2" d="M331.93,481.41h-1.81v-0.71h4.47v0.71h-1.81v4.96h-0.85V481.41z"/>
		<path class="st2" d="M335.86,480.38h0.8v0.92h-0.8V480.38z M335.86,482.21h0.8v4.16h-0.8V482.21z"/>
		<path class="st2" d="M338.6,486.37v-3.52h-0.66v-0.64h0.66v-0.47c0-0.78,0.32-1.44,1.23-1.44c0.16,0,0.37,0.02,0.47,0.05v0.67
			c-0.09-0.02-0.23-0.03-0.34-0.03c-0.41,0-0.56,0.23-0.56,0.81v0.42h0.81v0.64h-0.81v3.52H338.6z"/>
		<path class="st2" d="M341.45,480.38h0.8v0.92h-0.8V480.38z M341.45,482.21h0.8v4.16h-0.8V482.21z"/>
		<path class="st2" d="M347.4,485.08c-0.17,0.71-0.66,1.38-1.75,1.38c-1.17,0-1.87-0.84-1.87-2.15c0-1.18,0.68-2.2,1.93-2.2
			c1.24,0,1.65,0.88,1.69,1.41h-0.79c-0.1-0.41-0.35-0.75-0.92-0.75c-0.7,0-1.09,0.6-1.09,1.51c0,0.93,0.39,1.53,1.07,1.53
			c0.5,0,0.78-0.27,0.94-0.73H347.4z"/>
		<path class="st2" d="M348.85,480.38h0.8v0.92h-0.8V480.38z M348.85,482.21h0.8v4.16h-0.8V482.21z"/>
		<path class="st2" d="M354.61,485.43c0,0.38,0.03,0.82,0.06,0.94h-0.77c-0.03-0.09-0.06-0.29-0.07-0.52
			c-0.15,0.27-0.47,0.62-1.26,0.62c-0.98,0-1.4-0.64-1.4-1.28c0-0.93,0.73-1.36,1.97-1.36c0.27,0,0.53,0,0.69,0v-0.33
			c0-0.35-0.12-0.77-0.85-0.77c-0.65,0-0.77,0.32-0.84,0.64h-0.77c0.06-0.61,0.43-1.25,1.64-1.25c1.03,0,1.6,0.42,1.6,1.38V485.43z
			 M353.83,484.37c-0.12,0-0.42,0-0.63,0c-0.8,0-1.21,0.23-1.21,0.78c0,0.41,0.28,0.71,0.77,0.71c0.95,0,1.07-0.64,1.07-1.36V484.37
			z"/>
		<path class="st2" d="M356.42,486.37v-5.99h0.8v5.99H356.42z"/>
		<path class="st2" d="M242.71,490.49v5.67h-0.84v-5.67H242.71z"/>
		<path class="st2" d="M244.79,496.16v-5.67h1.09c0.79,1.32,2.48,4.04,2.78,4.65h0.01c-0.06-0.7-0.05-1.61-0.05-2.54v-2.11h0.79
			v5.67h-1.03c-0.72-1.21-2.49-4.17-2.83-4.81h-0.01c0.04,0.62,0.04,1.62,0.04,2.64v2.17H244.79z"/>
		<path class="st2" d="M250.84,492.01h0.7v-1.21h0.8v1.21h0.9v0.64h-0.9v2.36c0,0.39,0.1,0.58,0.47,0.58c0.09,0,0.23,0,0.34-0.03
			v0.59c-0.19,0.07-0.45,0.08-0.65,0.08c-0.68,0-0.96-0.35-0.96-1.05v-2.52h-0.7V492.01z"/>
		<path class="st2" d="M255.15,494.24c0,0.78,0.4,1.36,1.08,1.36c0.62,0,0.82-0.31,0.95-0.6h0.81c-0.16,0.53-0.61,1.26-1.78,1.26
			c-1.32,0-1.86-1.05-1.86-2.13c0-1.25,0.63-2.22,1.91-2.22c1.36,0,1.81,1.07,1.81,1.98c0,0.13,0,0.23-0.01,0.35H255.15z
			 M257.25,493.69c-0.01-0.64-0.32-1.17-1-1.17c-0.7,0-1,0.48-1.07,1.17H257.25z"/>
		<path class="st2" d="M259.56,496.16v-5.99h0.8v5.99H259.56z"/>
		<path class="st2" d="M262.16,490.18h0.8v0.92h-0.8V490.18z M262.16,492.01h0.8v4.16h-0.8V492.01z"/>
		<path class="st2" d="M268.26,495.76c0,1.33-0.54,2.11-1.94,2.11c-1.31,0-1.68-0.73-1.75-1.28h0.82c0.11,0.42,0.45,0.65,0.97,0.65
			c0.91,0,1.12-0.57,1.12-1.5v-0.31c-0.22,0.45-0.59,0.7-1.27,0.7c-1.04,0-1.72-0.85-1.72-2.04c0-1.35,0.79-2.18,1.8-2.18
			c0.78,0,1.11,0.37,1.2,0.63c0.01-0.17,0.03-0.45,0.04-0.53h0.76c0,0.27-0.01,0.8-0.01,1.2V495.76z M265.31,494.06
			c0,0.85,0.44,1.41,1.08,1.41c0.86,0,1.1-0.58,1.1-1.46c0-0.89-0.22-1.43-1.08-1.43C265.71,492.58,265.31,493.17,265.31,494.06z"/>
		<path class="st2" d="M270.58,494.24c0,0.78,0.4,1.36,1.08,1.36c0.62,0,0.82-0.31,0.95-0.6h0.81c-0.16,0.53-0.61,1.26-1.78,1.26
			c-1.32,0-1.86-1.05-1.86-2.13c0-1.25,0.63-2.22,1.91-2.22c1.36,0,1.81,1.07,1.81,1.98c0,0.13,0,0.23-0.01,0.35H270.58z
			 M272.67,493.69c-0.01-0.64-0.32-1.17-1-1.17c-0.7,0-1,0.48-1.07,1.17H272.67z"/>
		<path class="st2" d="M274.99,493.05c0-0.36,0-0.73-0.01-1.05h0.78c0.02,0.12,0.03,0.53,0.03,0.65c0.16-0.34,0.5-0.75,1.29-0.75
			c0.79,0,1.39,0.49,1.39,1.59v2.67h-0.8v-2.57c0-0.6-0.23-1-0.84-1c-0.73,0-1.04,0.53-1.04,1.35v2.22h-0.8V493.05z"/>
		<path class="st2" d="M283.6,494.88c-0.17,0.71-0.66,1.38-1.75,1.38c-1.17,0-1.87-0.84-1.87-2.15c0-1.18,0.68-2.2,1.93-2.2
			c1.24,0,1.65,0.88,1.69,1.41h-0.79c-0.1-0.41-0.35-0.75-0.92-0.75c-0.7,0-1.09,0.6-1.09,1.51c0,0.93,0.39,1.53,1.07,1.53
			c0.5,0,0.78-0.27,0.94-0.73H283.6z"/>
		<path class="st2" d="M285.57,494.24c0,0.78,0.4,1.36,1.08,1.36c0.62,0,0.82-0.31,0.95-0.6h0.81c-0.16,0.53-0.61,1.26-1.78,1.26
			c-1.32,0-1.86-1.05-1.86-2.13c0-1.25,0.63-2.22,1.91-2.22c1.36,0,1.81,1.07,1.81,1.98c0,0.13,0,0.23-0.01,0.35H285.57z
			 M287.66,493.69c-0.01-0.64-0.32-1.17-1-1.17c-0.7,0-1,0.48-1.07,1.17H287.66z"/>
		<path class="st2" d="M293.62,490.49v5.67h-0.84v-5.67H293.62z"/>
		<path class="st2" d="M295.56,493.05c0-0.36,0-0.73-0.01-1.05h0.78c0.02,0.12,0.03,0.53,0.03,0.65c0.16-0.34,0.5-0.75,1.29-0.75
			c0.79,0,1.39,0.49,1.39,1.59v2.67h-0.8v-2.57c0-0.6-0.23-1-0.84-1c-0.73,0-1.04,0.53-1.04,1.35v2.22h-0.8V493.05z"/>
		<path class="st2" d="M300.96,496.16v-3.52h-0.66v-0.64h0.66v-0.47c0-0.78,0.32-1.44,1.23-1.44c0.16,0,0.37,0.02,0.47,0.05v0.67
			c-0.09-0.02-0.23-0.03-0.34-0.03c-0.41,0-0.56,0.23-0.56,0.81v0.42h0.81v0.64h-0.81v3.52H300.96z"/>
		<path class="st2" d="M303.82,493.14c0-0.55,0-0.88-0.01-1.13h0.79c0.01,0.11,0.02,0.46,0.02,0.83c0.21-0.54,0.7-0.91,1.39-0.92
			v0.79c-0.85,0.02-1.39,0.42-1.39,1.49v1.98h-0.8V493.14z"/>
		<path class="st2" d="M310.53,495.22c0,0.38,0.03,0.82,0.06,0.94h-0.77c-0.03-0.09-0.06-0.29-0.07-0.52
			c-0.15,0.27-0.47,0.62-1.26,0.62c-0.98,0-1.4-0.64-1.4-1.28c0-0.93,0.73-1.36,1.97-1.36c0.27,0,0.53,0,0.69,0v-0.33
			c0-0.35-0.12-0.77-0.85-0.77c-0.65,0-0.77,0.32-0.84,0.64h-0.77c0.06-0.61,0.43-1.25,1.64-1.25c1.03,0,1.6,0.42,1.6,1.38V495.22z
			 M309.75,494.16c-0.12,0-0.42,0-0.63,0c-0.8,0-1.21,0.23-1.21,0.78c0,0.41,0.28,0.71,0.77,0.71c0.95,0,1.07-0.64,1.07-1.36V494.16
			z"/>
		<path class="st2" d="M312.78,494.96c0.11,0.43,0.44,0.68,0.97,0.68c0.57,0,0.8-0.24,0.8-0.6c0-0.37-0.19-0.53-0.94-0.71
			c-1.22-0.3-1.46-0.67-1.46-1.24c0-0.59,0.43-1.19,1.54-1.19c1.11,0,1.55,0.63,1.6,1.21h-0.77c-0.05-0.25-0.24-0.6-0.86-0.6
			c-0.54,0-0.71,0.26-0.71,0.51c0,0.29,0.16,0.43,0.91,0.61c1.28,0.3,1.53,0.74,1.53,1.35c0,0.72-0.57,1.27-1.65,1.27
			c-1.11,0-1.64-0.56-1.74-1.3H312.78z"/>
		<path class="st2" d="M316.37,492.01h0.7v-1.21h0.8v1.21h0.9v0.64h-0.9v2.36c0,0.39,0.1,0.58,0.47,0.58c0.09,0,0.23,0,0.34-0.03
			v0.59c-0.19,0.07-0.45,0.08-0.65,0.08c-0.68,0-0.96-0.35-0.96-1.05v-2.52h-0.7V492.01z"/>
		<path class="st2" d="M320.15,493.14c0-0.55,0-0.88-0.01-1.13h0.79c0.01,0.11,0.02,0.46,0.02,0.83c0.21-0.54,0.7-0.91,1.39-0.92
			v0.79c-0.85,0.02-1.39,0.42-1.39,1.49v1.98h-0.8V493.14z"/>
		<path class="st2" d="M327.1,494.95c0,0.4,0,0.94,0.01,1.21h-0.78c-0.02-0.11-0.02-0.36-0.03-0.59c-0.21,0.45-0.61,0.69-1.24,0.69
			c-0.73,0-1.38-0.38-1.38-1.53v-2.73h0.8v2.56c0,0.53,0.17,1.01,0.82,1.01c0.72,0,1-0.4,1-1.39v-2.18h0.8V494.95z"/>
		<path class="st2" d="M332.24,494.88c-0.17,0.71-0.65,1.38-1.75,1.38c-1.17,0-1.87-0.84-1.87-2.15c0-1.18,0.68-2.2,1.93-2.2
			c1.24,0,1.65,0.88,1.69,1.41h-0.79c-0.1-0.41-0.35-0.75-0.92-0.75c-0.69,0-1.09,0.6-1.09,1.51c0,0.93,0.39,1.53,1.07,1.53
			c0.5,0,0.78-0.27,0.94-0.73H332.24z"/>
		<path class="st2" d="M333.18,492.01h0.7v-1.21h0.8v1.21h0.9v0.64h-0.9v2.36c0,0.39,0.1,0.58,0.47,0.58c0.09,0,0.23,0,0.34-0.03
			v0.59c-0.19,0.07-0.45,0.08-0.65,0.08c-0.68,0-0.96-0.35-0.96-1.05v-2.52h-0.7V492.01z"/>
		<path class="st2" d="M340.37,494.95c0,0.4,0,0.94,0.01,1.21h-0.78c-0.02-0.11-0.02-0.36-0.03-0.59c-0.21,0.45-0.61,0.69-1.24,0.69
			c-0.73,0-1.38-0.38-1.38-1.53v-2.73h0.8v2.56c0,0.53,0.17,1.01,0.82,1.01c0.72,0,1-0.4,1-1.39v-2.18h0.8V494.95z"/>
		<path class="st2" d="M342.17,493.14c0-0.55,0-0.88-0.01-1.13h0.79c0.01,0.11,0.02,0.46,0.02,0.83c0.21-0.54,0.7-0.91,1.39-0.92
			v0.79c-0.85,0.02-1.39,0.42-1.39,1.49v1.98h-0.8V493.14z"/>
		<path class="st2" d="M349.48,493.55h-2.8v1.9h3.08l-0.11,0.71h-3.79v-5.67h3.75v0.71h-2.93v1.63h2.8V493.55z"/>
	</g>
</g>
</svg>
