<svg id="레이어_1" data-name="레이어 1" xmlns="http://www.w3.org/2000/svg" viewBox="0 0 183.46 112.37">
  <defs
		>
    <style>
      .cls-1{fill:#a8ccca;}.cls-2,.cls-3{fill:#054a54;}.cls-2{fill-rule:evenodd;}
    </style>
  </defs>
  <rect class="cls-1" y="82.04" width="183.46" height="22.71"/>
  <rect class="cls-1" y="108.75" width="183.46" height="3.62"/>
  <polygon class="cls-2" points="18.14 68.99 18.14 89.66 22.64 89.66 22.64 77.53 28.65 87.49 30.78 87.49 36.77 77.39 36.77 89.66 41.13 89.66 41.13 68.99 37.26 68.99 29.72 82.04 22.12 68.99 18.14 68.99"/>
  <path class="cls-2" d="M86.43,116.32H81.68v7.39h4.75a3.7,3.7,0,0,0,0-7.39ZM77,112.44v20.67h4.64v-5.65H86.1l3.77,5.65h5l-4.34-6.5a7.49,7.49,0,0,0-3.49-14.17Z" transform="translate(-8.54 -43.45)"/>
  <polygon class="cls-2" points="93.81 72.84 93.81 89.66 98.59 89.66 98.59 72.84 104.95 72.84 104.95 68.99 87.44 68.99 87.44 72.84 93.81 72.84"/>
  <rect class="cls-3" x="140.7" y="68.99" width="4.78" height="20.67"/>
  <polygon class="cls-2" points="150.4 68.99 150.4 89.66 166.38 89.66 166.38 85.86 155.18 85.86 155.18 81.27 164.62 81.27 164.62 77.47 155.18 77.47 155.18 72.83 165.85 72.83 165.85 68.99 150.4 68.99"/>
  <polygon class="cls-2" points="122.03 89.66 117.27 89.66 117.27 68.99 121.26 68.99 131.29 81.64 131.29 68.99 136.07 68.99 136.07 89.66 132.15 89.66 122.04 77.23 122.03 89.66"/>
  <path class="cls-2" d="M63.28,118.11l-3.1,7.15h6.2Zm-2.46-5.67h4.92l9,20.67H69.78l-1.86-4.29H58.64l-1.86,4.29H51.86Z" transform="translate(-8.54 -43.45)"/>
  <polygon class="cls-2" points="108.43 68.99 107.39 68.99 107.39 89.66 112.17 89.66 112.17 68.99 111.18 68.99 109.8 70.37 108.43 68.99"/>
  <rect class="cls-3" x="113.58" y="99.7" width="9.48" height="9.48" transform="translate(-47.73 70.8) rotate(-45)"/>
  <rect class="cls-3" x="105.03" y="91.15" width="9.48" height="9.48" transform="translate(-44.19 62.25) rotate(-45)"/>
  <rect class="cls-3" x="113.58" y="82.61" width="9.48" height="9.48" transform="translate(-35.65 65.8) rotate(-45)"/>
  <rect class="cls-3" x="121.07" y="65.66" width="9.48" height="9.48" transform="translate(35.49 145.68) rotate(-84.67)"/>
  <rect class="cls-3" x="103.99" y="60.91" width="9.48" height="9.48" transform="translate(-17.49 -25.58) rotate(-9.02)"/>
  <rect class="cls-3" x="112.95" y="45.41" width="9.48" height="9.48" transform="translate(-9.22 55.23) rotate(-45.38)"/>
  <rect class="cls-3" x="96.61" y="82.61" width="9.48" height="9.48" transform="translate(-40.62 53.79) rotate(-45)"/>
  <rect class="cls-3" x="121.92" y="91.15" width="9.48" height="9.48" transform="translate(-39.25 74.2) rotate(-45)"/>
  <rect class="cls-3" x="130.36" y="82.61" width="9.48" height="9.48" transform="translate(-30.73 77.66) rotate(-45)"/>
</svg>
